<?xml version="1.0" standalone="no"?>
<!DOCTYPE svg PUBLIC "-//W3C//DTD SVG 20010904//EN"
 "http://www.w3.org/TR/2001/REC-SVG-20010904/DTD/svg10.dtd">
<svg version="1.0" xmlns="http://www.w3.org/2000/svg"
 width="512.000000pt" height="512.000000pt" viewBox="0 0 512.000000 512.000000"
 preserveAspectRatio="xMidYMid meet">

<g transform="translate(0.000000,512.000000) scale(0.100000,-0.100000)"
fill="#000000" stroke="none">
<path d="M2900 4034 c-43 -19 -77 -50 -98 -89 -28 -54 -882 -2629 -882 -2660
0 -118 95 -214 213 -215 81 0 150 39 185 105 33 64 882 2631 882 2668 0 75
-49 150 -122 188 -45 23 -128 25 -178 3z"/>
<path d="M1410 3609 c-59 -26 -930 -893 -960 -955 -24 -49 -26 -130 -4 -182
18 -45 878 -911 939 -947 90 -52 181 -40 255 35 70 69 85 158 42 245 -8 17
-177 193 -375 393 l-362 362 362 363 c381 381 402 407 403 492 0 44 -36 131
-66 157 -33 29 -107 58 -149 58 -22 0 -60 -10 -85 -21z"/>
<path d="M3535 3606 c-27 -13 -58 -32 -67 -42 -29 -33 -58 -107 -58 -149 0
-84 22 -111 403 -492 l362 -363 -362 -362 c-198 -200 -367 -376 -375 -393 -43
-87 -28 -176 42 -245 74 -75 165 -87 255 -35 61 36 921 902 939 947 20 48 20
128 0 176 -23 56 -893 924 -958 957 -63 31 -116 32 -181 1z"/>
</g>
</svg>
